<?xml version="1.0" encoding="UTF-8"?>
<!-- MemeForge — wordmark for dark backgrounds -->
<svg xmlns="http://www.w3.org/2000/svg" viewBox="0 0 412.39 55.29">
  <g id="wordmark">
    <path id="meme" fill="#F4F5F7" d="M14.36 55.29L6.12 55.29L6.12 0L18.59 0L30.65 31.73Q31.17 33.14 31.82 35.29Q32.47 37.44 33.18 39.97Q33.88 42.49 34.51 44.94Q35.14 47.39 35.63 49.36L35.63 49.36L33.84 49.36Q34.33 47.50 34.96 45.07Q35.59 42.64 36.29 40.12Q37.00 37.59 37.67 35.37Q38.33 33.14 38.85 31.73L38.85 31.73L50.73 0L63.27 0L63.27 55.29L54.85 55.29L54.85 25.53Q54.85 23.82 54.88 21.45Q54.92 19.07 54.98 16.42Q55.03 13.77 55.09 11.06Q55.14 8.35 55.18 5.86L55.18 5.86L55.81 5.86Q55.07 8.57 54.20 11.45Q53.33 14.32 52.49 17.00Q51.66 19.67 50.90 21.88Q50.13 24.08 49.62 25.53L49.62 25.53L38.30 55.29L31.06 55.29L19.59 25.53Q19.04 24.12 18.31 21.95Q17.59 19.78 16.74 17.13Q15.88 14.47 14.99 11.60Q14.10 8.72 13.21 5.86L13.21 5.86L13.95 5.86Q14.03 8.13 14.08 10.78Q14.14 13.43 14.19 16.14Q14.25 18.85 14.31 21.28Q14.36 23.71 14.36 25.53L14.36 25.53L14.36 55.29Z M90.46 56.15L90.46 56.15Q84.33 56.15 79.88 53.51Q75.43 50.88 73.03 46.09Q70.64 41.30 70.64 34.85L70.64 34.85Q70.64 28.46 73.00 23.60Q75.35 18.74 79.66 16.01Q83.96 13.29 89.75 13.29L89.75 13.29Q93.31 13.29 96.62 14.45Q99.92 15.62 102.55 18.11Q105.19 20.60 106.73 24.55Q108.27 28.50 108.27 34.14L108.27 34.14L108.27 37.04L75.20 37.04L75.20 30.95L104.08 30.95L100.25 32.95Q100.25 29.13 99.07 26.22Q97.88 23.30 95.56 21.67Q93.24 20.04 89.75 20.04L89.75 20.04Q86.30 20.04 83.85 21.71Q81.40 23.38 80.12 26.11Q78.84 28.83 78.84 32.06L78.84 32.06L78.84 36.22Q78.84 40.49 80.31 43.44Q81.77 46.39 84.41 47.89Q87.04 49.39 90.53 49.39L90.53 49.39Q92.83 49.39 94.69 48.74Q96.54 48.09 97.90 46.78Q99.25 45.46 99.96 43.53L99.96 43.53L107.64 45.35Q106.64 48.54 104.28 50.99Q101.92 53.44 98.42 54.79Q94.91 56.15 90.46 56.15Z M123.10 55.29L114.93 55.29L114.93 13.80L122.69 13.80L122.91 23.42L122.28 23.42Q123.17 19.89 125.03 17.63Q126.88 15.36 129.37 14.23Q131.85 13.10 134.56 13.10L134.56 13.10Q139.09 13.10 141.87 15.90Q144.66 18.70 145.62 23.71L145.62 23.71L144.58 23.71Q145.40 20.30 147.40 17.92Q149.41 15.55 152.25 14.32Q155.08 13.10 158.31 13.10L158.31 13.10Q161.99 13.10 164.97 14.70Q167.96 16.29 169.71 19.45Q171.45 22.60 171.45 27.31L171.45 27.31L171.45 55.29L163.29 55.29L163.29 28.13Q163.29 23.97 160.97 22.12Q158.65 20.26 155.49 20.26L155.49 20.26Q152.93 20.26 151.08 21.34Q149.22 22.41 148.22 24.33Q147.22 26.24 147.22 28.72L147.22 28.72L147.22 55.29L139.16 55.29L139.16 27.61Q139.16 24.27 137.03 22.27Q134.90 20.26 131.59 20.26L131.59 20.26Q129.33 20.26 127.38 21.32Q125.43 22.38 124.27 24.44Q123.10 26.50 123.10 29.50L123.10 29.50L123.10 55.29Z M198.04 56.15L198.04 56.15Q191.92 56.15 187.46 53.51Q183.01 50.88 180.62 46.09Q178.22 41.30 178.22 34.85L178.22 34.85Q178.22 28.46 180.58 23.60Q182.94 18.74 187.24 16.01Q191.55 13.29 197.34 13.29L197.34 13.29Q200.90 13.29 204.20 14.45Q207.50 15.62 210.14 18.11Q212.77 20.60 214.31 24.55Q215.85 28.50 215.85 34.14L215.85 34.14L215.85 37.04L182.79 37.04L182.79 30.95L211.66 30.95L207.84 32.95Q207.84 29.13 206.65 26.22Q205.46 23.30 203.14 21.67Q200.82 20.04 197.34 20.04L197.34 20.04Q193.88 20.04 191.44 21.71Q188.99 23.38 187.71 26.11Q186.43 28.83 186.43 32.06L186.43 32.06L186.43 36.22Q186.43 40.49 187.89 43.44Q189.36 46.39 191.99 47.89Q194.63 49.39 198.12 49.39L198.12 49.39Q200.42 49.39 202.27 48.74Q204.13 48.09 205.48 46.78Q206.84 45.46 207.54 43.53L207.54 43.53L215.22 45.35Q214.22 48.54 211.86 50.99Q209.51 53.44 206.00 54.79Q202.49 56.15 198.04 56.15Z"/>
    <path id="forge" fill="#DEFD41" d="M229.40 55.29L221.48 55.29L221.48 11.06L249.80 11.06L249.80 17.74L229.40 17.74L229.40 31.01L247.81 31.01L247.81 37.60L229.40 37.60L229.40 55.29Z M273.88 55.89L273.88 55.89Q268.06 55.89 263.46 53.19Q258.86 50.48 256.20 45.41Q253.55 40.33 253.55 33.21L253.55 33.21Q253.55 26.05 256.20 20.96Q258.86 15.87 263.46 13.17Q268.06 10.46 273.88 10.46L273.88 10.46Q279.67 10.46 284.26 13.17Q288.84 15.87 291.50 20.96Q294.16 26.05 294.16 33.21L294.16 33.21Q294.16 40.33 291.50 45.42Q288.84 50.51 284.26 53.20Q279.67 55.89 273.88 55.89ZM273.88 48.79L273.88 48.79Q277.47 48.79 280.25 47.00Q283.03 45.20 284.60 41.71Q286.17 38.22 286.17 33.21L286.17 33.21Q286.17 28.13 284.60 24.64Q283.03 21.15 280.25 19.36Q277.47 17.56 273.88 17.56L273.88 17.56Q270.26 17.56 267.47 19.37Q264.68 21.18 263.09 24.67Q261.50 28.16 261.50 33.21L261.50 33.21Q261.50 38.22 263.09 41.70Q264.68 45.17 267.47 46.98Q270.26 48.79 273.88 48.79Z M307.32 55.29L299.39 55.29L299.39 11.06L315.93 11.06Q321.00 11.06 324.48 12.84Q327.95 14.62 329.73 17.81Q331.51 21.00 331.51 25.22L331.51 25.22Q331.51 29.44 329.72 32.55Q327.92 35.67 324.42 37.36Q320.91 39.05 315.81 39.05L315.81 39.05L303.99 39.05L303.99 32.49L314.77 32.49Q317.77 32.49 319.67 31.65Q321.57 30.80 322.49 29.17Q323.41 27.54 323.41 25.22L323.41 25.22Q323.41 22.84 322.49 21.17Q321.57 19.49 319.65 18.60Q317.74 17.71 314.71 17.71L314.71 17.71L307.32 17.71L307.32 55.29ZM333.14 55.29L324.27 55.29L313.52 35.22L322.19 35.22L333.14 55.29Z M355.86 55.89L355.86 55.89Q349.75 55.89 345.14 53.13Q340.54 50.36 337.96 45.29Q335.38 40.21 335.38 33.24L335.38 33.24Q335.38 26.08 338.03 20.99Q340.69 15.90 345.26 13.18Q349.83 10.46 355.62 10.46L355.62 10.46Q359.28 10.46 362.44 11.53Q365.60 12.60 368.08 14.58Q370.56 16.55 372.14 19.25Q373.73 21.95 374.24 25.19L374.24 25.19L366.13 25.19Q365.60 23.41 364.66 22.01Q363.73 20.62 362.41 19.61Q361.09 18.60 359.41 18.08Q357.73 17.56 355.71 17.56L355.71 17.56Q352.15 17.56 349.34 19.37Q346.54 21.18 344.94 24.66Q343.33 28.13 343.33 33.18L343.33 33.18Q343.33 38.16 344.94 41.65Q346.54 45.14 349.36 46.97Q352.18 48.79 355.89 48.79L355.89 48.79Q359.28 48.79 361.75 47.49Q364.23 46.18 365.58 43.77Q366.93 41.37 366.93 38.10L366.93 38.10L368.75 38.40L356.72 38.40L356.72 32.17L374.62 32.17L374.62 37.48Q374.62 43.15 372.20 47.29Q369.78 51.43 365.55 53.66Q361.32 55.89 355.86 55.89Z M408.89 55.29L380.03 55.29L380.03 11.06L408.77 11.06L408.77 17.74L387.96 17.74L387.96 29.67L407.23 29.67L407.23 36.26L387.96 36.26L387.96 48.61L408.89 48.61L408.89 55.29Z"/>
  </g>
</svg>
